# xmcd
#
# Track frame offsets: 
#        150
#        11607
#        21790
#        31477
#        55645
#        64382
#        74202
#        87152
#        98290
#        111120
#        121645
#        134100
#        145507
#        155167
#
# Disc length: 2226 seconds
#
# Revision: 4
# Processed by: cddbd v1.5.2PL0 Copyright (c) Steve Scherf et al.
# Submitted via: ExactAudioCopy v0.95b4
#
DISCID=bd08b00e
DTITLE=Various Artist - Hot Rod Cowboys
DYEAR=1997
DGENRE=Country
TTITLE0=Robert Mitchum - The Ballad Of Thunder Road
TTITLE1=Dave Dudley - Six Days On The Road
TTITLE2=George Jones - The Race Is On
TTITLE3=Johnny Cash - Highway Patrolman
TTITLE4=Red Foley - Travelin' Man
TTITLE5=Jimmy Dolen - Hot Rod Race
TTITLE6=Asleep At The Wheel - (Get Your Kicks On) Route 66
TTITLE7=Roger Miller - King Of The Road
TTITLE8=Merle Haggard - White Line Fever
TTITLE9=Red Simpson - The Highway Patrol
TTITLE10=Johnny Bond - Hot Rod Lincoln
TTITLE11=Red Steagall - Truck Drivin' Man
TTITLE12=Porter Wagoner - Highway Headin' South
TTITLE13=Mel McDaniel - Stand On It
EXTD=1997 The Right Stuff
EXTT0=
EXTT1=
EXTT2=
EXTT3=
EXTT4=
EXTT5=
EXTT6=
EXTT7=
EXTT8=
EXTT9=
EXTT10=
EXTT11=
EXTT12=
EXTT13=
PLAYORDER=
